<mxfile host="app.diagrams.net" modified="2022-07-14T02:00:11.445Z" agent="5.0 (Windows NT 10.0; Win64; x64) AppleWebKit/537.36 (KHTML, like Gecko) Chrome/103.0.5060.114 Safari/537.36 Edg/103.0.1264.49" etag="CXMcmyuZYJ8NX0HYGYmp" version="20.1.1" type="github">
  <diagram id="0Pmur6qMSnBrTHz6HK2N" name="Page-1">
    <mxGraphModel dx="990" dy="579" grid="1" gridSize="10" guides="1" tooltips="1" connect="1" arrows="1" fold="1" page="1" pageScale="1" pageWidth="850" pageHeight="1100" math="0" shadow="0">
      <root>
        <mxCell id="0" />
        <mxCell id="1" parent="0" />
        <mxCell id="k8i9Ly0yQRcnjryVycOY-5" value="" style="edgeStyle=orthogonalEdgeStyle;rounded=0;orthogonalLoop=1;jettySize=auto;html=1;" edge="1" parent="1" source="k8i9Ly0yQRcnjryVycOY-1" target="k8i9Ly0yQRcnjryVycOY-4">
          <mxGeometry relative="1" as="geometry" />
        </mxCell>
        <mxCell id="k8i9Ly0yQRcnjryVycOY-14" value="" style="edgeStyle=orthogonalEdgeStyle;rounded=0;orthogonalLoop=1;jettySize=auto;html=1;" edge="1" parent="1" source="k8i9Ly0yQRcnjryVycOY-1" target="k8i9Ly0yQRcnjryVycOY-13">
          <mxGeometry relative="1" as="geometry" />
        </mxCell>
        <mxCell id="k8i9Ly0yQRcnjryVycOY-1" value="ms-day1-bringup" style="rounded=1;whiteSpace=wrap;html=1;" vertex="1" parent="1">
          <mxGeometry x="320" y="70" width="120" height="60" as="geometry" />
        </mxCell>
        <mxCell id="k8i9Ly0yQRcnjryVycOY-7" value="" style="edgeStyle=orthogonalEdgeStyle;rounded=0;orthogonalLoop=1;jettySize=auto;html=1;" edge="1" parent="1" source="k8i9Ly0yQRcnjryVycOY-4" target="k8i9Ly0yQRcnjryVycOY-6">
          <mxGeometry relative="1" as="geometry" />
        </mxCell>
        <mxCell id="k8i9Ly0yQRcnjryVycOY-4" value="workflow-engine" style="rounded=1;whiteSpace=wrap;html=1;" vertex="1" parent="1">
          <mxGeometry x="320" y="157" width="120" height="60" as="geometry" />
        </mxCell>
        <mxCell id="k8i9Ly0yQRcnjryVycOY-17" style="edgeStyle=orthogonalEdgeStyle;rounded=0;orthogonalLoop=1;jettySize=auto;html=1;" edge="1" parent="1" source="k8i9Ly0yQRcnjryVycOY-6" target="k8i9Ly0yQRcnjryVycOY-15">
          <mxGeometry relative="1" as="geometry" />
        </mxCell>
        <mxCell id="k8i9Ly0yQRcnjryVycOY-6" value="nano-service" style="rounded=1;whiteSpace=wrap;html=1;" vertex="1" parent="1">
          <mxGeometry x="320" y="240" width="120" height="60" as="geometry" />
        </mxCell>
        <mxCell id="k8i9Ly0yQRcnjryVycOY-12" style="edgeStyle=orthogonalEdgeStyle;rounded=0;orthogonalLoop=1;jettySize=auto;html=1;" edge="1" parent="1" target="k8i9Ly0yQRcnjryVycOY-1">
          <mxGeometry relative="1" as="geometry">
            <mxPoint x="380" y="50" as="sourcePoint" />
          </mxGeometry>
        </mxCell>
        <mxCell id="k8i9Ly0yQRcnjryVycOY-13" value="other domains" style="ellipse;whiteSpace=wrap;html=1;rounded=1;" vertex="1" parent="1">
          <mxGeometry x="520" y="70" width="120" height="60" as="geometry" />
        </mxCell>
        <mxCell id="k8i9Ly0yQRcnjryVycOY-15" value="other domains" style="ellipse;whiteSpace=wrap;html=1;" vertex="1" parent="1">
          <mxGeometry x="320" y="330" width="120" height="80" as="geometry" />
        </mxCell>
        <mxCell id="k8i9Ly0yQRcnjryVycOY-16" value="input.json" style="rounded=0;whiteSpace=wrap;html=1;" vertex="1" parent="1">
          <mxGeometry x="345" y="20" width="70" height="30" as="geometry" />
        </mxCell>
      </root>
    </mxGraphModel>
  </diagram>
</mxfile>
